<svg xmlns="http://www.w3.org/2000/svg" height="24" viewBox="0 -960 960 960" width="24"><path d="M480-360q50 0 85-35t35-85q0-50-35-85t-85-35q-50 0-85 35t-35 85q0 50 35 85t85 35Zm0 40q-66.846 0-113.423-46.577T320-480q0-66.846 46.577-113.423T480-640q66.846 0 113.423 46.577T640-480q0 66.846-46.577 113.423T480-320ZM80-460q-8.5 0-14.25-5.758Q60-471.515 60-480.027t5.75-14.242Q71.5-500 80-500h100q8.5 0 14.25 5.758 5.75 5.757 5.75 14.269t-5.75 14.242Q188.5-460 180-460H80Zm700 0q-8.5 0-14.25-5.758-5.75-5.757-5.75-14.269t5.75-14.242Q771.5-500 780-500h100q8.5 0 14.25 5.758 5.75 5.757 5.75 14.269t-5.75 14.242Q888.5-460 880-460H780ZM479.973-760q-8.512 0-14.242-5.75Q460-771.5 460-780v-100q0-8.5 5.758-14.25 5.757-5.75 14.269-5.75t14.242 5.75Q500-888.5 500-880v100q0 8.5-5.758 14.25-5.757 5.75-14.269 5.75Zm0 700q-8.512 0-14.242-5.75Q460-71.5 460-80v-100q0-8.5 5.758-14.25 5.757-5.75 14.269-5.75t14.242 5.75Q500-188.5 500-180v100q0 8.5-5.758 14.25Q488.485-60 479.973-60ZM254.461-678.769l-57.615-55.846q-5.846-5.616-5.731-13.77.116-8.154 5.965-14.769 6.381-6.615 14.151-6.615 7.769 0 14.154 6.615L282-706.308q6.385 6.616 6.385 14.154 0 7.539-6 14.154t-13.654 6.115q-7.654-.5-14.27-6.884Zm480.154 481.923L678-253.692q-6.385-6.616-6.385-14.269 0-7.654 6.385-14.039 5.231-6.615 13.077-6.115t14.462 6.884l57.615 55.846q5.846 5.616 5.731 13.77-.116 8.154-5.965 14.769-6.381 6.615-14.151 6.615-7.769 0-14.154-6.615ZM678-677.615q-6.615-6-6.115-13.654t6.884-14.27l55.846-57.615q5.616-5.846 13.77-5.731 8.154.116 14.769 5.965 6.615 6.381 6.615 14.151 0 7.769-6.615 14.154L706.308-678q-6.616 6.385-14.154 6.385-7.539 0-14.154-6ZM196.846-196.679q-6.615-6.782-6.615-14.552 0-7.769 6.615-14.154L253.692-282q6.616-6.385 14.269-6.385 7.654 0 14.039 6.385 5.846 5.231 5.346 13.077t-6.115 14.462l-55.846 57.615q-6.385 6.615-14.154 6.5-7.77-.115-14.385-6.333ZM480-480Z"/></svg>