<svg xmlns="http://www.w3.org/2000/svg" height="24" viewBox="0 -960 960 960" width="24"><path d="M482.308-160Q349-160 255.654-253.346 162.307-346.692 162.307-480q0-98.769 56.539-181.423t160.385-118.885q12.231-4.308 21.462-2.269 9.23 2.038 15.23 7.961t7.654 15.231q1.654 9.308-2.5 19.539-7.769 19.077-11.269 38.658t-3.5 41.188q0 106.667 74.667 181.333Q555.641-404 662.308-404q27.923 0 51.115-5.923 23.192-5.923 39.5-9.616 8.693-1.615 15.962.423 7.269 2.039 11.532 7.039 4.737 5 6.391 12.307 1.654 7.308-1.885 16.693-28.615 98-112.115 160.539Q589.308-160 482.308-160Zm0-40q88 0 158-48.5t102-126.5q-20 5-40 8t-40 3q-123 0-209.5-86.5t-86.5-209.5q0-20 3-40t8-40q-78 32-126.5 102t-48.5 158q0 116 82 198t198 82Zm-10-270Z"/></svg>